<?xml version="1.0" encoding="UTF-8" standalone="no"?>
<!-- Created with Inkscape (http://www.inkscape.org/) -->

<svg
   xmlns:dc="http://purl.org/dc/elements/1.1/"
   xmlns:cc="http://creativecommons.org/ns#"
   xmlns:rdf="http://www.w3.org/1999/02/22-rdf-syntax-ns#"
   xmlns:svg="http://www.w3.org/2000/svg"
   xmlns="http://www.w3.org/2000/svg"
   xmlns:sodipodi="http://sodipodi.sourceforge.net/DTD/sodipodi-0.dtd"
   xmlns:inkscape="http://www.inkscape.org/namespaces/inkscape"
   width="173"
   height="173"
   viewBox="0 0 173 173"
   id="svg2"
   version="1.1"
   inkscape:version="0.91 r13725"
   sodipodi:docname="icon.svg"
   inkscape:export-filename="/home/patrick/Projects/FateApp/resources/path8237-1.png"
   inkscape:export-xdpi="90"
   inkscape:export-ydpi="90">
  <defs
     id="defs4" />
  <sodipodi:namedview
     id="base"
     pagecolor="#c89696"
     bordercolor="#666666"
     borderopacity="1"
     inkscape:pageopacity="0"
     inkscape:pageshadow="2"
     inkscape:zoom="5.12"
     inkscape:cx="78.058026"
     inkscape:cy="89.870718"
     inkscape:document-units="px"
     inkscape:current-layer="layer3"
     showgrid="false"
     units="px"
     inkscape:window-width="1855"
     inkscape:window-height="1056"
     inkscape:window-x="65"
     inkscape:window-y="24"
     inkscape:window-maximized="1"
     inkscape:showpageshadow="false" />
  <metadata
     id="metadata7">
    <rdf:RDF>
      <cc:Work
         rdf:about="">
        <dc:format>image/svg+xml</dc:format>
        <dc:type
           rdf:resource="http://purl.org/dc/dcmitype/StillImage" />
        <dc:title></dc:title>
      </cc:Work>
    </rdf:RDF>
  </metadata>
  <g
     inkscape:groupmode="layer"
     id="layer4"
     inkscape:label="Text"
     style="display:inline">
    <g
       transform="translate(-10.278594,12.97101)"
       style="font-style:normal;font-weight:normal;font-size:40px;line-height:125%;font-family:sans-serif;letter-spacing:0px;word-spacing:0px;fill:#0000ff;fill-opacity:1;stroke:none;stroke-width:1px;stroke-linecap:butt;stroke-linejoin:miter;stroke-opacity:1"
       id="flowRoot7303-9" />
    <path
       style="display:inline;fill:#ffffff"
       d="m 72.490234,19.046875 c -5.379076,1.349541 -5.902791,8.70449 -8.427162,12.760651 -1.695582,2.223664 -1.251033,8.049092 -5.027916,6.553802 -14.810612,-0.749799 -29.653468,0.04422 -44.474609,0.03711 C 14.366834,44.557219 14.177668,50.716144 13.986328,56.875 9.042047,57.926162 -1.2992903,53.580267 1,61.875 c 1.3315963,4.668404 -3.4332127,15.433213 4,14 3.8461185,0.502668 10.765838,-2.112753 9.013672,4.011719 -0.315407,3.803314 0.627558,9.164361 5.55664,8.810547 5.082878,0.354837 10.186589,0.09633 15.277344,0.177734 -0.230938,-5.071651 -1.159485,-10.162617 -0.498047,-15.236328 4.14667,0.245937 8.358363,0.629577 12.470703,-0.214844 -0.974561,4.730809 -5.466126,9.400405 -4.207031,14.337891 3.311412,2.809464 8.129992,-0.806512 12.089844,-0.179688 6.301351,0.138562 10.758385,-5.578605 17.144531,-4.351562 5.30496,-0.251675 8.488741,2.948146 13.791016,3.466797 11.36841,1.228209 22.853448,2.244263 34.361328,2.378906 0,-10.067057 0,-20.134115 0,-30.201172 7.83921,-2.36525 4.2324,6.715512 5,11.421875 0.64045,5.463554 -1.05842,11.788691 1.45117,16.804687 5.84078,3.103241 13.18715,1.032196 19.54492,1.767476 8.66796,0.01437 17.33594,0.0017 26.00391,0.006 -1.00387,-5.911341 1.85931,-13.295686 -1.76172,-18.533203 -1.39037,-5.523461 0.1523,-11.304327 1.48242,-16.701172 C 172.22082,48.401001 171.91344,43.128556 172,37.875 143.10405,38.262488 114.14329,37.075612 85.283203,38.589844 81.475076,40.491242 82.153403,33.767492 80.253906,31.75 77.810479,28.065555 77.731308,20.139567 72.490234,19.046875 Z M 35.925781,56.505859 c 4.496484,0.11734 2.312875,1.372858 -0.308593,0.06445 -0.003,-0.164774 0.230338,-0.02447 0.308593,-0.06445 z m 58.357422,2.169922 c 5.44373,0.02534 1.647083,8.722428 2.707031,12.835938 -1.175964,-0.938683 -3.508797,-8.202772 -5.18979,-11.796854 -1.679498,-2.296082 1.442208,-0.7365 2.482759,-1.039084 z m -23.15625,2.910157 c 0.451056,2.069001 4.402649,7.74072 -0.138672,6.474609 -4.825783,1.314456 -0.519629,-4.413315 0.0078,-6.740235 l 0.130859,0.265626 z"
       id="path3366-6-3"
       inkscape:connector-curvature="0" />
    <flowRoot
       xml:space="preserve"
       id="flowRoot8111"
       style="font-style:normal;font-weight:normal;font-size:40px;line-height:125%;font-family:sans-serif;letter-spacing:0px;word-spacing:0px;fill:#000000;fill-opacity:1;stroke:none;stroke-width:1px;stroke-linecap:butt;stroke-linejoin:miter;stroke-opacity:1"><flowRegion
         id="flowRegion8113"><rect
           id="rect8115"
           width="57.8125"
           height="50.78125"
           x="90.820312"
           y="3.078125" /></flowRegion><flowPara
         id="flowPara8117">TM</flowPara></flowRoot>    <g
       transform="translate(66.992187,83.789062)"
       style="font-style:normal;font-variant:normal;font-weight:normal;font-stretch:normal;font-size:11.25px;line-height:125%;font-family:Purisa;-inkscape-font-specification:'Purisa, Normal';text-align:start;letter-spacing:0px;word-spacing:0px;writing-mode:lr-tb;text-anchor:start;fill:#000000;fill-opacity:1;stroke:none;stroke-width:1px;stroke-linecap:butt;stroke-linejoin:miter;stroke-opacity:1"
       id="flowRoot8119">
      <path
         d="m 94.992188,3.3339846 c -3.638828,1.3429793 -8.994212,-0.032793 -11.867187,3.0878906 -0.854907,2.7185866 2.374931,3.7164288 4.412109,2.984375 -0.201032,2.6682108 0.302299,9.6964858 4.634766,6.7949218 1.55413,-2.15114 -0.792117,-5.989937 0.490234,-7.5468749 -0.471895,2.6876339 -0.410208,11.0793239 4.28125,7.6425779 0.879487,-0.901904 0.599245,-5.814247 1.464844,-2.576172 -0.225786,4.229004 6.587526,3.017711 4.734376,-0.90039 C 102.7632,9.8214323 104.35955,2.25988 99.103517,3.7031252 97.747133,4.5918314 97.624693,6.2570136 96.789063,3.9824221 96.314097,3.5117183 95.669041,3.234898 94.992188,3.3339846 Z"
         id="path8256"
         inkscape:connector-curvature="0"
         style="fill:#ffffff" />
    </g>
    <path
       transform="matrix(0.99997396,0,0,1,66.730737,84.128906)"
       style="font-style:normal;font-variant:normal;font-weight:normal;font-stretch:normal;font-size:11.25px;line-height:125%;font-family:Purisa;-inkscape-font-specification:'Purisa, Normal';text-align:start;letter-spacing:0px;word-spacing:0px;writing-mode:lr-tb;text-anchor:start;display:inline;fill:#000000;fill-opacity:1;stroke:none;stroke-width:1px;stroke-linecap:butt;stroke-linejoin:miter;stroke-opacity:1"
       sodipodi:type="inkscape:offset"
       inkscape:radius="0"
       inkscape:original="M 95.476562 4.9824219 C 95.304062 4.9824219 95.165547 5.0528125 95.060547 5.1953125 C 94.970547 5.3078125 94.923828 6.5158594 94.923828 8.8183594 C 94.923828 10.160859 94.928047 11.215469 94.935547 11.980469 C 94.950547 12.737969 94.978125 13.341016 95.015625 13.791016 C 95.053125 14.241016 95.097891 14.532969 95.150391 14.667969 C 95.210391 14.802969 95.289219 14.871094 95.386719 14.871094 C 95.596719 14.871094 95.731016 14.649531 95.791016 14.207031 C 95.858516 13.772031 95.896797 12.842969 95.904297 11.417969 L 95.904297 8.5136719 L 96.476562 9.4941406 C 96.634063 9.7641406 96.791719 9.9964062 96.949219 10.191406 C 97.106719 10.378906 97.215391 10.472656 97.275391 10.472656 C 97.515391 10.472656 97.794375 10.363984 98.109375 10.146484 C 98.431875 9.9214843 98.670625 9.6700781 98.828125 9.3925781 C 99.255625 8.6500781 99.605 7.9704688 99.875 7.3554688 C 100.1 6.8529687 100.24695 6.6015625 100.31445 6.6015625 C 100.36695 6.6015625 100.41398 7.1682812 100.45898 8.3007812 C 100.50398 9.4332812 100.5507 10.603047 100.5957 11.810547 C 100.6407 13.018047 100.68547 13.682734 100.73047 13.802734 C 100.77547 13.922734 100.8543 14.01875 100.9668 14.09375 C 101.0793 14.16875 101.19445 14.207031 101.31445 14.207031 C 101.52445 14.207031 101.62891 14.089922 101.62891 13.857422 C 101.62891 13.752422 101.61398 13.64375 101.58398 13.53125 C 101.55398 13.41875 101.51766 13.280234 101.47266 13.115234 C 101.43519 12.942734 101.39691 12.537891 101.35938 11.900391 C 101.32184 11.262891 101.30044 10.438281 101.29297 9.4257812 C 101.27794 7.7532812 101.24387 6.658125 101.19141 6.140625 C 101.13891 5.615625 101.03023 5.2789063 100.86523 5.1289062 C 100.80523 5.0689062 100.72219 5.0390625 100.61719 5.0390625 C 100.46719 5.0390625 100.31375 5.1029687 100.15625 5.2304688 C 99.998748 5.3579688 99.870938 5.5263281 99.773438 5.7363281 C 99.240938 6.8688281 98.767969 7.7871875 98.355469 8.4921875 C 97.942969 9.1896875 97.674375 9.5390625 97.546875 9.5390625 C 97.419375 9.5390625 97.204297 9.2110937 96.904297 8.5585938 C 96.611797 7.8985937 96.353906 7.16125 96.128906 6.34375 C 95.978906 5.82625 95.855312 5.4703906 95.757812 5.2753906 C 95.667812 5.0803906 95.574063 4.9824219 95.476562 4.9824219 z M 92.730469 5.4433594 C 92.482969 5.4433594 91.943828 5.5221875 91.111328 5.6796875 C 89.761328 5.9421875 88.346641 6.1851563 86.869141 6.4101562 C 86.141641 6.5226563 85.692031 6.6057031 85.519531 6.6582031 C 85.354531 6.7032031 85.271484 6.7904688 85.271484 6.9179688 C 85.271484 7.0229688 85.335391 7.1082812 85.462891 7.1757812 C 85.597891 7.2432812 85.759766 7.2773438 85.947266 7.2773438 C 86.029766 7.2773437 86.206563 7.2475 86.476562 7.1875 C 86.746562 7.1275 87.004453 7.0976562 87.251953 7.0976562 C 87.506953 7.0976563 87.858594 7.059375 88.308594 6.984375 C 88.766094 6.909375 89.025937 6.8710938 89.085938 6.8710938 C 89.220937 6.8710938 89.318906 6.9028906 89.378906 6.9628906 C 89.618906 7.2178906 89.812891 8.5602343 89.962891 10.990234 C 90.045391 12.415234 90.132656 13.369922 90.222656 13.857422 C 90.320156 14.344922 90.465156 14.589844 90.660156 14.589844 C 90.862656 14.589844 90.964844 14.472734 90.964844 14.240234 C 90.964844 14.142734 90.952187 13.997734 90.929688 13.802734 C 90.907188 13.607734 90.836797 12.685156 90.716797 11.035156 C 90.604297 9.3776562 90.506328 8.2549219 90.423828 7.6699219 L 90.255859 6.7265625 L 91.121094 6.5234375 C 91.691094 6.3884375 92.227969 6.3203125 92.730469 6.3203125 C 93.052969 6.3203125 93.312812 6.2839844 93.507812 6.2089844 C 93.702813 6.1264844 93.798828 6.0285156 93.798828 5.9160156 C 93.798828 5.7960156 93.679453 5.6873438 93.439453 5.5898438 C 93.199453 5.4923438 92.962969 5.4433594 92.730469 5.4433594 z "
       id="path8237-1"
       d="m 95.476562,4.9824219 c -0.1725,0 -0.311015,0.070391 -0.416015,0.2128906 -0.09,0.1125 -0.136719,1.3205469 -0.136719,3.6230469 0,1.3424996 0.0042,2.3971096 0.01172,3.1621096 0.015,0.7575 0.04258,1.360547 0.08008,1.810547 0.0375,0.45 0.08227,0.741953 0.134766,0.876953 0.06,0.135 0.138828,0.203125 0.236328,0.203125 0.21,0 0.344297,-0.221563 0.404297,-0.664063 0.0675,-0.435 0.105781,-1.364062 0.113281,-2.789062 l 0,-2.9042971 0.572265,0.9804687 c 0.157501,0.27 0.315157,0.5022656 0.472657,0.6972654 0.1575,0.1875 0.266172,0.28125 0.326172,0.28125 0.24,0 0.518984,-0.108672 0.833984,-0.326172 0.3225,-0.2249997 0.56125,-0.4764059 0.71875,-0.7539059 0.4275,-0.7425 0.776875,-1.4221093 1.046875,-2.0371093 0.225,-0.5025001 0.37195,-0.7539063 0.43945,-0.7539063 0.0525,0 0.0995,0.5667187 0.14453,1.6992187 0.045,1.1325 0.0917,2.3022658 0.13672,3.5097658 0.045,1.2075 0.0898,1.872187 0.13477,1.992187 0.045,0.12 0.12383,0.216016 0.23633,0.291016 0.1125,0.075 0.22765,0.113281 0.34765,0.113281 0.21,0 0.31446,-0.117109 0.31446,-0.349609 0,-0.105 -0.0149,-0.213672 -0.0449,-0.326172 -0.03,-0.1125 -0.0663,-0.251016 -0.11132,-0.416016 -0.0375,-0.1725 -0.0757,-0.577343 -0.11328,-1.214843 -0.0375,-0.6375 -0.0589,-1.46211 -0.0664,-2.4746098 -0.015,-1.6725 -0.0491,-2.7676562 -0.10156,-3.2851562 -0.0525,-0.525 -0.16118,-0.8617187 -0.32618,-1.0117188 -0.06,-0.06 -0.14304,-0.089844 -0.24804,-0.089844 -0.15,0 -0.30344,0.063906 -0.46094,0.1914063 -0.157502,0.1275 -0.285312,0.2958593 -0.382812,0.5058593 -0.5325,1.1325 -1.005469,2.0508594 -1.417969,2.7558594 -0.4125,0.6975 -0.681094,1.046875 -0.808594,1.046875 -0.1275,0 -0.342578,-0.3279688 -0.642578,-0.9804687 C 96.611797,7.8985937 96.353906,7.16125 96.128906,6.34375 c -0.15,-0.5175 -0.273594,-0.8733594 -0.371094,-1.0683594 -0.09,-0.195 -0.183749,-0.2929687 -0.28125,-0.2929687 z m -2.746093,0.4609375 c -0.2475,0 -0.786641,0.078828 -1.619141,0.2363281 -1.35,0.2625 -2.764687,0.5054688 -4.242187,0.7304687 -0.7275,0.1125001 -1.17711,0.1955469 -1.34961,0.2480469 -0.165,0.045 -0.248047,0.1322657 -0.248047,0.2597657 0,0.105 0.06391,0.1903124 0.191407,0.2578124 0.135,0.0675 0.296875,0.1015626 0.484375,0.1015626 0.0825,-10e-8 0.259297,-0.029844 0.529296,-0.089844 0.27,-0.06 0.527891,-0.089844 0.775391,-0.089844 0.255,10e-8 0.606641,-0.038281 1.056641,-0.1132812 0.4575,-0.075 0.717343,-0.1132812 0.777344,-0.1132812 0.134999,0 0.232968,0.031797 0.292968,0.091797 0.24,0.255 0.433985,1.5973437 0.583985,4.0273434 0.0825,1.425 0.169765,2.379688 0.259765,2.867188 0.0975,0.4875 0.2425,0.732422 0.4375,0.732422 0.2025,0 0.304688,-0.11711 0.304688,-0.34961 0,-0.0975 -0.01266,-0.2425 -0.03516,-0.4375 -0.0225,-0.195 -0.09289,-1.117578 -0.212891,-2.767578 -0.1125,-1.6574998 -0.210469,-2.7802341 -0.292969,-3.3652341 l -0.167969,-0.9433594 0.865235,-0.203125 c 0.57,-0.135 1.106875,-0.203125 1.609375,-0.203125 0.3225,0 0.582343,-0.036328 0.777343,-0.1113281 0.195001,-0.0825 0.291016,-0.1804688 0.291016,-0.2929688 0,-0.12 -0.119375,-0.2286718 -0.359375,-0.3261718 -0.24,-0.0975 -0.476484,-0.1464844 -0.708984,-0.1464844 z" />
  </g>
  <g
     inkscape:groupmode="layer"
     id="layer2"
     inkscape:label="Fill"
     style="display:inline">
    <path
       style="display:inline;fill:#005fff;fill-opacity:1"
       d="m 54.988064,58.90418 c -1.665921,4.03989 -3.316446,7.59857 -3.667834,7.90816 -0.351389,0.30959 -0.278547,-0.33711 0.16187,-1.43711 0.440417,-1.1 1.001655,-3.15891 1.247195,-4.57535 l 0.446436,-2.57534 -8.455635,0.4438 c -5.60392,0.29414 -11.611775,1.39629 -11.167188,-1.93734 0.572597,-4.29349 4.141151,-1.00042 11.20362,-1.371 l 8.422468,-0.44194 2.834286,-1.0749 c 0.690757,-1.66763 1.234774,-2.80067 1.440421,-2.59503 0.205646,0.20565 -0.799719,3.61615 -2.465639,7.65605 z m 11.894484,7.814026 c 3.377814,-10.697244 4.624801,-10.52927 7.545194,-2.165306 2.060743,5.714805 0.682672,5.813145 -3.395414,5.515261 0,0 -6.642442,0.926108 -4.14978,-3.349955 z M 16.606989,85.29344 c 0.481173,1.25393 2.211857,1.58179 8.349809,1.58179 l 7.742825,0 C 32.335729,81.20493 31.618228,77.00812 32.627153,71.74544 33.107219,71.52562 36.2,71.63698 39.5,71.9929 c 3.072942,-0.3085 3.922766,0.36345 9.513282,-1.14974 0.690757,-1.66763 1.416774,-2.87121 1.613372,-2.67461 0.196597,0.1966 -1.213973,4.25451 -3.134602,9.01759 -4.02171,9.97368 -3.9632,9.68909 -1.992052,9.68909 6.662394,-1.8907 11.231813,-0.12236 18.008635,-4.19783 1.253571,-2.24001 15.870172,-1.76691 15.870172,0.44478 8.486458,2.05417 8.516379,2.31745 13.249858,1.99487 2.129234,0.59725 8.708835,1.26525 14.621335,1.48443 L 118,87 l 0,-15.06239 0,-15.06238 4.5,0 4.5,0 0,13.41821 c 0,7.38002 0.27314,14.13002 0.60699,15 0.52669,1.37254 3.3708,1.58179 21.5,1.58179 l 20.89301,0 0,-7.5 c 0,-5.33453 -0.36091,-7.49975 -1.25,-7.49775 -1.48065,0.0027 -1.18579,-13.89278 0.32789,-15.45225 0.50716,-0.5225 0.92211,-4.46 0.92211,-8.75 l 0,-7.8 -43,0 c -36.205647,0 -43,0.22138 -43,1.40104 0,0.77057 1.312248,4.48307 2.916106,8.25 l 2.916107,6.84896 4.583893,0.30479 L 99,56.98481 99,69.09669 C 99,75.75822 98.768485,80.97705 98.485522,80.69408 98.202559,80.41112 95.982835,75.27362 93.552803,69.27742 91.12277,63.28121 87.054645,53.42523 84.512526,47.37523 81.970406,41.32523 78.525739,32.88773 76.857709,28.625231 72.42239,17.291171 72.087313,17.515151 63.980021,37.23315 61.102657,44.23127 58.574142,49.78271 58.361099,49.56966 58.148055,49.35662 58.654654,47.55267 59.486873,45.56089 60.319093,43.56911 61,41.4664 61,40.88822 61,40.1767 53.81049,39.92393 38.75,40.1061 l -22.25,0.26913 -0.287526,9.25 -0.287526,9.25 -6.462474,0 -6.462474,0 0,7.5 0,7.5 6.5,0 6.5,0 0,4.91821 c 0,2.70502 0.273145,5.63002 0.606989,6.5 z"
       id="path3366-6"
       inkscape:connector-curvature="0"
       sodipodi:nodetypes="sssscssscscsccccssccccssccccscccccssscscsscssscccscsssscssscccccccccss" />
  </g>
  <g
     inkscape:groupmode="layer"
     id="layer3"
     inkscape:label="Border"
     style="display:inline">
    <path
       transform="translate(0,-879.36221)"
       style="display:inline;fill:#000000"
       d="M 16.606989,964.65565 C 16.273145,963.78567 16,960.86067 16,958.15565 l 0,-4.91821 -6.5,0 -6.5,0 0,-7.5 0,-7.5 6.4624742,0 6.4624738,0 0.287526,-9.25 0.287526,-9.25 22.25,-0.26913 c 15.06049,-0.18217 22.25,0.0706 22.25,0.78212 0,0.57818 -0.680907,2.68089 -1.513127,4.67267 -0.832219,1.99178 -1.338818,3.79573 -1.125774,4.00877 0.213043,0.21305 2.741558,-5.33839 5.618922,-12.33651 8.107292,-19.718 8.442369,-19.94198 12.877688,-8.60792 1.66803,4.2625 5.112697,12.7 7.654817,18.75 2.542119,6.05 6.610244,15.90598 9.040277,21.90219 2.430032,5.9962 4.649756,11.1337 4.932719,11.41666 C 98.768485,960.33926 99,955.12043 99,948.4589 l 0,-12.11188 -4.583894,-0.30479 -4.583893,-0.30479 -2.916107,-6.84896 C 85.312248,925.12155 84,921.40905 84,920.63848 c 0,-1.17966 6.794353,-1.40104 43,-1.40104 l 43,0 0,7.8 c 0,4.29 -0.41495,8.2275 -0.92211,8.75 -1.51368,1.55947 -1.80854,15.45492 -0.32789,15.45225 0.88909,-0.002 1.25,2.16322 1.25,7.49775 l 0,7.5 -20.89301,0 c -18.1292,0 -20.97331,-0.20925 -21.5,-1.58179 -0.33385,-0.86998 -0.60699,-7.61998 -0.60699,-15 l 0,-13.41821 -4.5,0 -4.5,0 0,15.06238 0,15.06239 -10.75,-0.39852 c -5.9125,-0.21918 -12.492101,-0.88718 -14.621335,-1.48443 -4.733479,0.32258 -4.7634,0.0593 -13.249858,-1.99487 0,-2.21169 -14.616601,-2.68479 -15.870172,-0.44478 -6.776822,4.07547 -11.346241,2.30713 -18.008635,4.19783 -1.971148,0 -2.029658,0.28459 1.992052,-9.68909 1.920629,-4.76308 3.331199,-8.82099 3.134602,-9.01759 -0.196598,-0.1966 -0.922615,1.00698 -1.613372,2.67461 -5.590516,1.51319 -6.44034,0.84124 -9.513282,1.14974 -3.3,-0.35592 -6.392781,-0.46728 -6.872847,-0.24746 -1.008925,5.26268 -0.291424,9.45949 0.07247,15.12979 l -7.742825,0 c -6.137952,0 -7.868636,-0.32786 -8.349809,-1.58179 z M 31,949.23744 l 6.551027,0 c 6.530113,0 6.555652,-0.0111 8,-3.46788 C 46.347962,943.86222 47,941.85615 47,941.31162 c 0,-0.54453 -3.4875,-1.12148 -7.75,-1.28212 l -7.75,-0.29206 0,-4 0,-4 10.154998,-0.28393 10.154998,-0.28394 1.595002,-3.9863 C 54.282249,924.9908 55,922.75607 55,922.2172 c 0,-0.60332 -6.901494,-0.97976 -17.962474,-0.97976 l -17.962474,0 -0.287526,9.25 -0.287526,9.25 -7.305303,0.29493 -7.3053023,0.29492 0.3053027,4.20508 0.3053026,4.20507 7,0.5 7,0.5 0.29569,6.75 0.29569,6.75 5.95431,0 5.95431,0 z m 25.277815,12.45405 c 3.162836,-0.45643 5.118323,-1.32572 5.785184,-2.57177 0.855997,-1.59944 2.195678,-1.88228 8.915481,-1.88228 6.630214,0 8.122734,0.30641 9.236271,1.89621 0.90704,1.29498 3.382315,2.2114 7.806704,2.89027 3.5632,0.54673 6.576484,0.90799 6.696188,0.80281 0.211096,-0.18549 -1.242022,-3.7365 -14.972789,-36.58929 -3.563009,-8.525 -6.807898,-16.5578 -7.210863,-17.85066 -0.966514,-3.10094 -1.432955,-2.40919 -6.305084,9.35066 -2.27866,5.5 -7.080662,17.1046 -10.671116,25.788 -3.590453,8.6834 -7.033227,16.73184 -7.650608,17.88543 -1.016175,1.89874 -0.899168,2.04403 1.235153,1.53376 1.296715,-0.31001 4.507681,-0.87393 7.135479,-1.25314 z M 66.35299,948.71493 c -0.795648,-2.07342 2.940833,-10.90899 4.761956,-11.26049 1.714089,-0.33083 5.423804,8.93666 4.520042,11.29182 -0.795236,2.07235 -8.4847,2.0464 -9.281998,-0.0313 z m 7.639981,-3.86137 c -0.316582,-0.825 -1.60984,-6.08944 -2.83458,-6.12461 -1.093917,-0.0314 -4.031533,8.72069 -4.102579,9.56801 -0.08095,0.96548 6.345229,0.20317 7.211955,0.20317 0.866695,0 0.07231,-2.74202 -0.274796,-3.64657 z m 39.231639,2.63388 0.27539,-15.75 8,0 8,0 0.27539,15.75 0.2754,15.75 17.9746,0 17.97461,0 0,-4.46827 0,-4.46826 -11.75,-0.28174 -11.75,-0.28173 0,-3.5 0,-3.5 10.75,-0.28383 10.75,-0.28383 0,-3.96617 0,-3.96617 -11.06336,0 -11.06336,0 0.31336,-3.25 0.31336,-3.25 11.25,-0.28275 11.25,-0.28275 0,-4.96725 0,-4.96725 -39.10699,0 c -30.867277,0 -39.008874,0.26337 -38.641323,1.25 0.256115,0.6875 1.062196,2.91686 1.791291,4.95413 1.267642,3.54211 1.547209,3.71708 6.391324,4 l 5.065698,0.29587 0.27539,15.75 0.2754,15.75 5.94921,0 5.94921,0 z m -58.236546,-9.22105 c 1.66592,-4.0399 2.671285,-7.4504 2.465639,-7.65605 -0.205647,-0.20564 -0.749664,0.9274 -1.440421,2.59503 l -2.834286,1.0749 -8.422468,0.44194 c -7.062469,0.37058 -10.631023,-2.92249 -11.20362,1.371 -0.444587,3.33363 5.563268,2.23148 11.167188,1.93734 l 8.455635,-0.4438 -0.446436,2.57534 c -0.24554,1.41644 -0.806778,3.47535 -1.247195,4.57535 -0.440417,1.1 -0.513259,1.7467 -0.16187,1.43711 0.351388,-0.30959 2.001913,-3.86827 3.667834,-7.90816 z"
       id="path3366"
       inkscape:connector-curvature="0"
       sodipodi:nodetypes="sscccccccccssscsssscscccssscsscscssscccccsccccssccccsscsssscccccsssccccccccccccccssssscssssssscssccsssssccccccccccccccccccccccccccssssccccccscscssscssss" />
  </g>
  <g
     inkscape:groupmode="layer"
     id="layer1"
     inkscape:label="APP"
     style="display:inline">
    <path
       style="font-style:normal;font-variant:normal;font-weight:normal;font-stretch:normal;font-size:40px;line-height:125%;font-family:Purisa;-inkscape-font-specification:'Purisa, Normal';text-align:center;letter-spacing:0px;word-spacing:0px;writing-mode:lr-tb;text-anchor:middle;display:inline;fill:#0000ff;fill-opacity:1;stroke:none;stroke-width:1px;stroke-linecap:butt;stroke-linejoin:miter;stroke-opacity:1"
       d="m 102.37695,88.830078 c -4.588543,0.906791 -10.330845,-0.758917 -13.179684,4.076172 -2.813872,1.765803 -3.180311,7.63146 1.132812,7.14648 0.501496,8.83949 0.22481,18.00838 2.304688,26.59961 2.942775,3.80301 7.032851,-1.21364 6.015625,-4.64062 0.150701,-3.28837 -0.658498,-7.20687 -0.171875,-10.02344 7.179924,-0.58648 14.237014,-6.9363 14.542964,-14.326171 -0.0515,2.908261 4.3527,1.480043 3.33399,4.208981 0.76065,8.25162 0.0968,16.9699 2.40039,24.91993 3.03642,3.55658 6.87078,-1.43641 5.91016,-4.7793 0.1507,-3.28837 -0.6585,-7.20687 -0.17188,-10.02344 8.70944,-0.61671 17.21484,-10.07875 13.82422,-19.037108 -4.05254,-6.092216 -12.58059,-3.445381 -18.63086,-3.476563 -3.0846,0.584538 -5.97601,5.612425 -6.65625,6.539063 0.0918,-5.783937 -6.1021,-7.082068 -10.6543,-7.183594 z M 75.330078,90.5 c -4.564964,2.1116 -5.15855,8.417976 -7.625,12.41797 -2.196497,7.329 -6.632003,13.44276 -9.404297,20.30078 -0.28672,4.56507 6.54065,4.0278 7.017578,-0.0449 2.452573,-4.06681 3.179723,-11.22832 9.205079,-10.22852 4.130257,-1.7523 2.770038,4.22239 4.033203,6.56055 0.195382,4.04042 7.699439,5.30186 6.964843,0.34375 C 82.585247,110.53947 82.23844,100.40546 78.03125,91.541016 77.329407,90.875088 76.318102,90.332891 75.330078,90.5 Z m 27.013672,5.548828 c 1.5739,0.163476 6.17036,0.744898 3.32031,3.134766 -1.57703,2.679946 -2.68257,5.638666 -6.636716,5.488286 -2.750593,0.17427 -1.555734,-5.130882 -1.71875,-7.558599 1.408362,-0.753162 3.406786,-0.898174 5.035156,-1.064453 z m 26.01563,0 c 1.57389,0.163476 6.17035,0.744898 3.32031,3.134766 -1.57703,2.679946 -2.68258,5.638666 -6.63672,5.488286 -2.75059,0.17427 -1.55574,-5.130882 -1.71875,-7.558599 1.40836,-0.753162 3.40678,-0.898174 5.03516,-1.064453 z m -53.164068,8.068362 c 1.045326,4.67276 -3.798548,1.7733 -0.302734,-1.41407 l 0.209345,0.97785 0.09339,0.43622 z"
       id="path8173"
       inkscape:connector-curvature="0"
       transform="translate(-10.278594,12.97101)" />
    <g
       transform="translate(-10.278594,12.97101)"
       style="font-style:normal;font-weight:normal;font-size:40px;line-height:125%;font-family:sans-serif;letter-spacing:0px;word-spacing:0px;display:inline;fill:#ffffff;fill-opacity:1;stroke:none;stroke-width:1px;stroke-linecap:butt;stroke-linejoin:miter;stroke-opacity:1"
       id="flowRoot7303">
      <path
         sodipodi:type="inkscape:offset"
         inkscape:radius="0"
         inkscape:original="M 102.44922 90.828125 C 101.64922 90.828125 100.62247 90.949453 99.369141 91.189453 C 98.142474 91.402786 97.103333 91.509766 96.25 91.509766 C 95.85 91.509766 95.489922 91.495417 95.169922 91.46875 C 94.849922 91.415417 94.623568 91.388672 94.490234 91.388672 C 94.036901 91.388672 93.596589 91.534792 93.169922 91.828125 C 92.743255 92.121458 92.103333 92.72224 91.25 93.628906 C 89.73 95.228906 88.970703 96.401771 88.970703 97.148438 C 88.970703 97.415104 89.048984 97.641458 89.208984 97.828125 C 89.395651 98.014792 89.570469 98.109375 89.730469 98.109375 C 90.130469 98.109375 90.595573 97.922161 91.128906 97.548828 L 92.330078 96.708984 L 92.330078 100.98828 C 92.330078 102.96161 92.529688 106.81549 92.929688 112.54883 C 93.329688 118.28216 93.663021 122.17518 93.929688 124.22852 C 94.089687 125.42852 94.464115 126.0293 95.050781 126.0293 C 95.370781 126.0293 95.755651 125.76185 96.208984 125.22852 C 96.502318 124.80185 96.650391 123.73596 96.650391 122.0293 C 96.650391 120.64263 96.596901 119.02945 96.490234 117.18945 L 96.089844 109.98828 L 98.449219 109.98828 C 99.995883 109.98828 100.86411 109.81542 101.05078 109.46875 C 101.21078 109.17542 101.83635 108.88318 102.92969 108.58984 C 103.83635 108.40318 105.08945 107.57604 106.68945 106.10938 C 108.28945 104.64271 109.08984 103.60161 109.08984 102.98828 C 109.08984 102.48161 109.26271 102.22852 109.60938 102.22852 C 109.92938 102.22852 110.25031 101.60294 110.57031 100.34961 C 110.89031 99.069609 111.05078 97.843255 111.05078 96.669922 C 111.05078 96.003255 110.98294 95.402474 110.84961 94.869141 C 110.71628 94.335807 110.55581 93.895495 110.36914 93.548828 C 110.18247 93.175495 109.87589 92.85651 109.44922 92.589844 C 109.02255 92.29651 108.65008 92.068203 108.33008 91.908203 C 108.03674 91.748203 107.53055 91.602083 106.81055 91.46875 C 106.11721 91.30875 105.56992 91.201771 105.16992 91.148438 C 104.76992 91.095104 104.10326 91.002474 103.16992 90.869141 C 103.03659 90.842474 102.79589 90.828125 102.44922 90.828125 z M 128.46484 90.828125 C 127.66484 90.828125 126.6381 90.949453 125.38477 91.189453 C 124.1581 91.402786 123.11896 91.509766 122.26562 91.509766 C 121.86563 91.509766 121.50555 91.495417 121.18555 91.46875 C 120.86555 91.415417 120.63919 91.388672 120.50586 91.388672 C 120.05253 91.388672 119.61221 91.534792 119.18555 91.828125 C 118.75888 92.121458 118.11896 92.72224 117.26562 93.628906 C 115.74563 95.228906 114.98633 96.401771 114.98633 97.148438 C 114.98633 97.415104 115.06461 97.641458 115.22461 97.828125 C 115.41128 98.014792 115.58609 98.109375 115.74609 98.109375 C 116.14609 98.109375 116.6112 97.922161 117.14453 97.548828 L 118.3457 96.708984 L 118.3457 100.98828 C 118.3457 102.96161 118.54531 106.81549 118.94531 112.54883 C 119.34531 118.28216 119.67865 122.17518 119.94531 124.22852 C 120.10531 125.42852 120.47974 126.0293 121.06641 126.0293 C 121.38641 126.0293 121.77128 125.76185 122.22461 125.22852 C 122.51794 124.80185 122.66602 123.73596 122.66602 122.0293 C 122.66602 120.64263 122.61253 119.02945 122.50586 117.18945 L 122.10547 109.98828 L 124.46484 109.98828 C 126.01151 109.98828 126.87974 109.81542 127.06641 109.46875 C 127.22641 109.17542 127.85198 108.88318 128.94531 108.58984 C 129.85198 108.40318 131.10508 107.57604 132.70508 106.10938 C 134.30508 104.64271 135.10547 103.60161 135.10547 102.98828 C 135.10547 102.48161 135.27833 102.22852 135.625 102.22852 C 135.945 102.22852 136.26594 101.60294 136.58594 100.34961 C 136.90594 99.069609 137.06641 97.843255 137.06641 96.669922 C 137.06641 96.003255 136.99857 95.402474 136.86523 94.869141 C 136.7319 94.335807 136.57143 93.895495 136.38477 93.548828 C 136.1981 93.175495 135.89151 92.85651 135.46484 92.589844 C 135.03818 92.29651 134.6657 92.068203 134.3457 91.908203 C 134.05237 91.748203 133.54617 91.602083 132.82617 91.46875 C 132.13284 91.30875 131.58555 91.201771 131.18555 91.148438 C 130.78555 91.095104 130.11888 91.002474 129.18555 90.869141 C 129.05221 90.842474 128.81151 90.828125 128.46484 90.828125 z M 75.677734 92.46875 C 75.571068 92.46875 75.359063 92.56138 75.039062 92.748047 C 74.692396 92.988047 73.785026 94.615573 72.318359 97.628906 C 70.851693 100.64224 69.705573 103.21628 68.878906 105.34961 C 67.57224 108.76294 66.691615 110.97495 66.238281 111.98828 C 65.784948 113.00161 65.37138 113.72177 64.998047 114.14844 C 64.624714 114.60177 64.184401 115.49479 63.677734 116.82812 C 63.197734 118.16146 62.812865 118.88161 62.519531 118.98828 C 62.146198 119.12161 61.958984 119.44255 61.958984 119.94922 C 61.958984 120.32255 61.679141 120.92138 61.119141 121.74805 C 60.559141 122.54805 60.279297 123.14883 60.279297 123.54883 C 60.279297 123.89549 60.411068 124.14859 60.677734 124.30859 C 60.944401 124.46859 61.226198 124.54883 61.519531 124.54883 C 62.212865 124.54883 62.865182 123.82867 63.478516 122.38867 C 64.225182 120.57534 65.677891 117.65557 67.837891 113.62891 L 68.998047 111.42969 L 71.798828 111.18945 C 73.532161 111.05612 75.118594 110.88326 76.558594 110.66992 L 78.519531 110.42969 L 79.279297 113.58984 C 79.465964 114.36318 79.638828 115.16161 79.798828 115.98828 C 79.985495 116.81495 80.119219 117.41573 80.199219 117.78906 C 80.279219 118.1624 80.371849 118.54922 80.478516 118.94922 C 80.585182 119.34922 80.677813 119.64146 80.757812 119.82812 C 80.864479 120.01479 80.998203 120.18961 81.158203 120.34961 C 81.318203 120.50961 81.517812 120.65573 81.757812 120.78906 C 82.291146 121.0824 82.704714 121.22852 82.998047 121.22852 C 83.37138 121.22852 83.558594 120.94867 83.558594 120.38867 C 83.558594 119.82867 83.212865 118.37596 82.519531 116.0293 C 81.852865 113.65596 81.439297 111.92146 81.279297 110.82812 C 81.09263 109.73479 80.759297 108.25534 80.279297 106.38867 C 79.799297 104.49534 79.546198 103.28138 79.519531 102.74805 C 79.519531 101.94805 79.079219 100.14961 78.199219 97.349609 C 77.345885 94.549609 76.771849 93.041458 76.478516 92.828125 C 76.131849 92.588125 75.864401 92.46875 75.677734 92.46875 z M 102.05078 94.029297 C 102.61078 94.029297 103.58404 94.189766 104.9707 94.509766 C 107.39737 95.043099 108.60938 96.055495 108.60938 97.548828 C 108.60938 98.268828 108.16906 99.202943 107.28906 100.34961 C 106.43573 101.46961 105.97062 102.32154 105.89062 102.9082 C 105.86396 103.2282 105.6624 103.60263 105.28906 104.0293 C 104.91573 104.4293 104.46302 104.77503 103.92969 105.06836 C 103.04969 105.54836 101.88922 105.98867 100.44922 106.38867 C 99.009221 106.76201 97.863099 106.94922 97.009766 106.94922 C 96.503099 106.94922 96.19651 106.88138 96.089844 106.74805 C 95.87651 106.50805 95.676901 105.48326 95.490234 103.66992 C 95.303568 101.85659 95.208984 100.17557 95.208984 98.628906 C 95.208984 97.108906 95.383802 96.135651 95.730469 95.708984 C 96.077135 95.282318 96.955807 94.92224 98.369141 94.628906 C 100.28914 94.228906 101.51745 94.029297 102.05078 94.029297 z M 128.06641 94.029297 C 128.62641 94.029297 129.59966 94.189766 130.98633 94.509766 C 133.41299 95.043099 134.625 96.055495 134.625 97.548828 C 134.625 98.268828 134.18469 99.202943 133.30469 100.34961 C 132.45135 101.46961 131.98625 102.32154 131.90625 102.9082 C 131.87958 103.2282 131.67802 103.60263 131.30469 104.0293 C 130.93135 104.4293 130.47865 104.77503 129.94531 105.06836 C 129.06531 105.54836 127.90484 105.98867 126.46484 106.38867 C 125.02484 106.76201 123.87872 106.94922 123.02539 106.94922 C 122.51872 106.94922 122.21214 106.88138 122.10547 106.74805 C 121.89214 106.50805 121.69253 105.48326 121.50586 103.66992 C 121.31919 101.85659 121.22461 100.17557 121.22461 98.628906 C 121.22461 97.108906 121.39943 96.135651 121.74609 95.708984 C 122.09276 95.282318 122.97143 94.92224 124.38477 94.628906 C 126.30477 94.228906 127.53307 94.029297 128.06641 94.029297 z M 75.439453 97.708984 C 75.732786 97.708984 76.171146 99.095807 76.757812 101.86914 C 77.371146 104.61581 77.677734 106.34836 77.677734 107.06836 C 77.677734 107.62836 77.424635 108.00279 76.917969 108.18945 C 76.411302 108.34945 75.184948 108.50992 73.238281 108.66992 L 70.078125 108.9082 L 70.558594 107.66992 C 71.278594 105.74992 72.212708 103.6162 73.359375 101.26953 C 74.532708 98.896198 75.22612 97.708984 75.439453 97.708984 z "
         style="font-style:normal;font-variant:normal;font-weight:normal;font-stretch:normal;font-size:40px;line-height:125%;font-family:Purisa;-inkscape-font-specification:'Purisa, Normal';text-align:center;writing-mode:lr-tb;text-anchor:middle;fill:#ffffff"
         id="path8300"
         d="m 102.44922,90.828125 c -0.8,0 -1.82675,0.121328 -3.080079,0.361328 -1.226667,0.213333 -2.265808,0.320313 -3.119141,0.320313 -0.4,0 -0.760078,-0.01435 -1.080078,-0.04102 -0.32,-0.05333 -0.546354,-0.08008 -0.679688,-0.08008 -0.453333,0 -0.893645,0.14612 -1.320312,0.439453 -0.426667,0.293333 -1.066589,0.894115 -1.919922,1.800781 -1.52,1.6 -2.279297,2.772865 -2.279297,3.519532 0,0.266666 0.07828,0.49302 0.238281,0.679687 0.186667,0.186667 0.361485,0.28125 0.521485,0.28125 0.4,0 0.865104,-0.187214 1.398437,-0.560547 l 1.201172,-0.839844 0,4.279296 c 0,1.97333 0.19961,5.82721 0.59961,11.56055 0.4,5.73333 0.733333,9.62635 1,11.67969 0.159999,1.2 0.534427,1.80078 1.121093,1.80078 0.32,0 0.70487,-0.26745 1.158203,-0.80078 0.293334,-0.42667 0.441407,-1.49256 0.441407,-3.19922 0,-1.38667 -0.05349,-2.99985 -0.160157,-4.83985 l -0.40039,-7.20117 2.359375,0 c 1.546664,0 2.414891,-0.17286 2.601561,-0.51953 0.16,-0.29333 0.78557,-0.58557 1.87891,-0.87891 0.90666,-0.18666 2.15976,-1.0138 3.75976,-2.48046 1.6,-1.46667 2.40039,-2.50777 2.40039,-3.1211 0,-0.50667 0.17287,-0.75976 0.51954,-0.75976 0.32,0 0.64093,-0.62558 0.96093,-1.87891 0.32,-1.280001 0.48047,-2.506355 0.48047,-3.679688 0,-0.666667 -0.0678,-1.267448 -0.20117,-1.800781 -0.13333,-0.533334 -0.2938,-0.973646 -0.48047,-1.320313 -0.18667,-0.373333 -0.49325,-0.692318 -0.91992,-0.958984 -0.42667,-0.293334 -0.79914,-0.521641 -1.11914,-0.681641 -0.29334,-0.16 -0.79953,-0.30612 -1.51953,-0.439453 -0.69334,-0.16 -1.24063,-0.266979 -1.64063,-0.320312 -0.4,-0.05333 -1.06666,-0.145964 -2,-0.279297 -0.13333,-0.02667 -0.37403,-0.04102 -0.7207,-0.04102 z m 26.01562,0 c -0.8,0 -1.82674,0.121328 -3.08007,0.361328 -1.22667,0.213333 -2.26581,0.320313 -3.11915,0.320313 -0.39999,0 -0.76007,-0.01435 -1.08007,-0.04102 -0.32,-0.05333 -0.54636,-0.08008 -0.67969,-0.08008 -0.45333,0 -0.89365,0.14612 -1.32031,0.439453 -0.42667,0.293333 -1.06659,0.894115 -1.91993,1.800781 -1.51999,1.6 -2.27929,2.772865 -2.27929,3.519532 0,0.266666 0.0783,0.49302 0.23828,0.679687 0.18667,0.186667 0.36148,0.28125 0.52148,0.28125 0.4,0 0.86511,-0.187214 1.39844,-0.560547 l 1.20117,-0.839844 0,4.279296 c 0,1.97333 0.19961,5.82721 0.59961,11.56055 0.4,5.73333 0.73334,9.62635 1,11.67969 0.16,1.2 0.53443,1.80078 1.1211,1.80078 0.32,0 0.70487,-0.26745 1.1582,-0.80078 0.29333,-0.42667 0.44141,-1.49256 0.44141,-3.19922 0,-1.38667 -0.0535,-2.99985 -0.16016,-4.83985 l -0.40039,-7.20117 2.35937,0 c 1.54667,0 2.4149,-0.17286 2.60157,-0.51953 0.16,-0.29333 0.78557,-0.58557 1.8789,-0.87891 0.90667,-0.18666 2.15977,-1.0138 3.75977,-2.48046 1.6,-1.46667 2.40039,-2.50777 2.40039,-3.1211 0,-0.50667 0.17286,-0.75976 0.51953,-0.75976 0.32,0 0.64094,-0.62558 0.96094,-1.87891 0.32,-1.280001 0.48047,-2.506355 0.48047,-3.679688 0,-0.666667 -0.0678,-1.267448 -0.20118,-1.800781 -0.13333,-0.533334 -0.2938,-0.973646 -0.48046,-1.320313 -0.18667,-0.373333 -0.49326,-0.692318 -0.91993,-0.958984 -0.42666,-0.293334 -0.79914,-0.521641 -1.11914,-0.681641 -0.29333,-0.16 -0.79953,-0.30612 -1.51953,-0.439453 -0.69333,-0.16 -1.24062,-0.266979 -1.64062,-0.320312 -0.4,-0.05333 -1.06667,-0.145964 -2,-0.279297 -0.13334,-0.02667 -0.37404,-0.04102 -0.72071,-0.04102 z M 75.677734,92.46875 c -0.106666,0 -0.318671,0.09263 -0.638672,0.279297 -0.346666,0.24 -1.254036,1.867526 -2.720703,4.880859 -1.466666,3.013334 -2.612786,5.587374 -3.439453,7.720704 -1.306666,3.41333 -2.187291,5.62534 -2.640625,6.63867 -0.453333,1.01333 -0.866901,1.73349 -1.240234,2.16016 -0.373333,0.45333 -0.813646,1.34635 -1.320313,2.67968 -0.48,1.33334 -0.864869,2.05349 -1.158203,2.16016 -0.373333,0.13333 -0.560547,0.45427 -0.560547,0.96094 0,0.37333 -0.279843,0.97216 -0.839843,1.79883 -0.56,0.8 -0.839844,1.40078 -0.839844,1.80078 0,0.34666 0.131771,0.59976 0.398437,0.75976 0.266667,0.16 0.548464,0.24024 0.841797,0.24024 0.693334,0 1.345651,-0.72016 1.958985,-2.16016 0.746666,-1.81333 2.199375,-4.7331 4.359375,-8.75976 l 1.160156,-2.19922 2.800781,-0.24024 c 1.733333,-0.13333 3.319766,-0.30619 4.759766,-0.51953 l 1.960937,-0.24023 0.759766,3.16015 c 0.186667,0.77334 0.359531,1.57177 0.519531,2.39844 0.186667,0.82667 0.320391,1.42745 0.400391,1.80078 0.08,0.37334 0.17263,0.76016 0.279297,1.16016 0.106666,0.4 0.199297,0.69224 0.279296,0.8789 0.106667,0.18667 0.240391,0.36149 0.400391,0.52149 0.16,0.16 0.359609,0.30612 0.599609,0.43945 0.533334,0.29334 0.946902,0.43946 1.240235,0.43946 0.373333,0 0.560547,-0.27985 0.560547,-0.83985 0,-0.56 -0.345729,-2.01271 -1.039063,-4.35937 -0.666666,-2.37334 -1.080234,-4.10784 -1.240234,-5.20118 -0.186667,-1.09333 -0.52,-2.57278 -1,-4.43945 -0.48,-1.89333 -0.733099,-3.10729 -0.759766,-3.64062 0,-0.8 -0.440312,-2.59844 -1.320312,-5.398441 -0.853334,-2.8 -1.42737,-4.308151 -1.720703,-4.521484 -0.346667,-0.24 -0.614115,-0.359375 -0.800782,-0.359375 z m 26.373046,1.560547 c 0.56,0 1.53326,0.160469 2.91992,0.480469 2.42667,0.533333 3.63868,1.545729 3.63868,3.039062 0,0.72 -0.44032,1.654115 -1.32032,2.800782 -0.85333,1.12 -1.31844,1.97193 -1.39844,2.55859 -0.0267,0.32 -0.22822,0.69443 -0.60156,1.1211 -0.37333,0.4 -0.82604,0.74573 -1.35937,1.03906 -0.88,0.48 -2.04047,0.92031 -3.48047,1.32031 -1.439999,0.37334 -2.586121,0.56055 -3.439454,0.56055 -0.506667,0 -0.813256,-0.0678 -0.919922,-0.20117 -0.213334,-0.24 -0.412943,-1.26479 -0.59961,-3.07813 -0.186666,-1.81333 -0.28125,-3.49435 -0.28125,-5.041014 0,-1.52 0.174818,-2.493255 0.521485,-2.919922 0.346666,-0.426666 1.225338,-0.786744 2.638672,-1.080078 1.919999,-0.4 3.148309,-0.599609 3.681639,-0.599609 z m 26.01563,0 c 0.56,0 1.53325,0.160469 2.91992,0.480469 2.42666,0.533333 3.63867,1.545729 3.63867,3.039062 0,0.72 -0.44031,1.654115 -1.32031,2.800782 -0.85334,1.12 -1.31844,1.97193 -1.39844,2.55859 -0.0267,0.32 -0.22823,0.69443 -0.60156,1.1211 -0.37334,0.4 -0.82604,0.74573 -1.35938,1.03906 -0.88,0.48 -2.04047,0.92031 -3.48047,1.32031 -1.44,0.37334 -2.58612,0.56055 -3.43945,0.56055 -0.50667,0 -0.81325,-0.0678 -0.91992,-0.20117 -0.21333,-0.24 -0.41294,-1.26479 -0.59961,-3.07813 -0.18667,-1.81333 -0.28125,-3.49435 -0.28125,-5.041014 0,-1.52 0.17482,-2.493255 0.52148,-2.919922 0.34667,-0.426666 1.22534,-0.786744 2.63868,-1.080078 1.92,-0.4 3.1483,-0.599609 3.68164,-0.599609 z m -52.626957,3.679687 c 0.293333,0 0.731693,1.386823 1.318359,4.160156 0.613334,2.74667 0.919922,4.47922 0.919922,5.19922 0,0.56 -0.253099,0.93443 -0.759765,1.12109 -0.506667,0.16 -1.733021,0.32047 -3.679688,0.48047 l -3.160156,0.23828 0.480469,-1.23828 c 0.72,-1.92 1.654114,-4.05372 2.800781,-6.40039 1.173333,-2.373332 1.866745,-3.560546 2.080078,-3.560546 z" />
    </g>
  </g>
</svg>
